<?xml version="1.0" encoding="UTF-8"?>
<svg xmlns="http://www.w3.org/2000/svg" xmlns:xlink="http://www.w3.org/1999/xlink" width="1080" height="1920" viewBox="0 0 1080 1920">
<defs>
<g>
<g id="glyph-0-0">
<path d="M 1.359375 0 L 1.359375 -13.609375 L 7.445312 -13.609375 C 9.429688 -13.609375 10.957031 -13.160156 12.027344 -12.257812 C 13.09375 -11.359375 13.628906 -10.128906 13.628906 -8.574219 C 13.628906 -7.550781 13.382812 -6.667969 12.890625 -5.921875 C 12.398438 -5.175781 11.703125 -4.605469 10.800781 -4.210938 C 9.898438 -3.8125 8.828125 -3.617188 7.582031 -3.617188 L 3.5 -3.617188 L 5.210938 -5.230469 L 5.210938 0 L 1.359375 0 M 9.78125 0 L 6.398438 -4.957031 L 10.5 -4.957031 L 13.902344 0 L 9.78125 0 M 5.210938 -4.820312 L 3.5 -6.589844 L 7.351562 -6.589844 C 8.152344 -6.589844 8.753906 -6.765625 9.148438 -7.117188 C 9.542969 -7.464844 9.742188 -7.953125 9.742188 -8.574219 C 9.742188 -9.210938 9.542969 -9.703125 9.148438 -10.050781 C 8.753906 -10.402344 8.152344 -10.578125 7.351562 -10.578125 L 3.5 -10.578125 L 5.210938 -12.347656 Z "/>
</g>
<g id="glyph-0-1">
<path d="M 1.359375 0 L 1.359375 -13.609375 L 12.035156 -13.609375 L 12.035156 -10.636719 L 5.171875 -10.636719 L 5.171875 -2.976562 L 12.289062 -2.976562 L 12.289062 0 L 1.359375 0 M 4.898438 -5.464844 L 4.898438 -8.339844 L 11.21875 -8.339844 L 11.21875 -5.464844 Z "/>
</g>
<g id="glyph-0-2">
<path d="M 1.359375 0 L 1.359375 -13.609375 L 7.582031 -13.609375 C 8.828125 -13.609375 9.898438 -13.410156 10.800781 -13.007812 C 11.703125 -12.605469 12.398438 -12.027344 12.890625 -11.269531 C 13.382812 -10.507812 13.628906 -9.613281 13.628906 -8.574219 C 13.628906 -7.550781 13.382812 -6.664062 12.890625 -5.910156 C 12.398438 -5.160156 11.703125 -4.578125 10.800781 -4.171875 C 9.898438 -3.761719 8.828125 -3.558594 7.582031 -3.558594 L 3.5 -3.558594 L 5.210938 -5.230469 L 5.210938 0 L 1.359375 0 M 5.210938 -4.820312 L 3.5 -6.589844 L 7.351562 -6.589844 C 8.152344 -6.589844 8.753906 -6.765625 9.148438 -7.117188 C 9.542969 -7.464844 9.742188 -7.953125 9.742188 -8.574219 C 9.742188 -9.210938 9.542969 -9.703125 9.148438 -10.050781 C 8.753906 -10.402344 8.152344 -10.578125 7.351562 -10.578125 L 3.5 -10.578125 L 5.210938 -12.347656 Z "/>
</g>
<g id="glyph-0-3">
<path d="M -0.273438 0 L 5.734375 -13.609375 L 9.527344 -13.609375 L 15.554688 0 L 11.550781 0 L 6.84375 -11.726562 L 8.359375 -11.726562 L 3.65625 0 L -0.273438 0 M 3.015625 -2.644531 L 4.003906 -5.484375 L 10.65625 -5.484375 L 11.648438 -2.644531 Z "/>
</g>
<g id="glyph-0-4">
<path d="M 4.257812 0 L 4.257812 -10.558594 L 0.078125 -10.558594 L 0.078125 -13.609375 L 12.269531 -13.609375 L 12.269531 -10.558594 L 8.109375 -10.558594 L 8.109375 0 Z "/>
</g>
<g id="glyph-0-5">
<path d="M 1.359375 0 L 1.359375 -13.609375 L 7.796875 -13.609375 C 9.300781 -13.609375 10.621094 -13.332031 11.761719 -12.773438 C 12.90625 -12.21875 13.796875 -11.433594 14.4375 -10.421875 C 15.078125 -9.410156 15.398438 -8.207031 15.398438 -6.804688 C 15.398438 -5.417969 15.078125 -4.214844 14.4375 -3.199219 C 13.796875 -2.179688 12.90625 -1.394531 11.761719 -0.835938 C 10.621094 -0.277344 9.300781 0 7.796875 0 L 1.359375 0 M 5.210938 -3.070312 L 7.640625 -3.070312 C 8.417969 -3.070312 9.097656 -3.21875 9.671875 -3.507812 C 10.25 -3.800781 10.699219 -4.230469 11.023438 -4.792969 C 11.347656 -5.355469 11.511719 -6.027344 11.511719 -6.804688 C 11.511719 -7.597656 11.347656 -8.269531 11.023438 -8.828125 C 10.699219 -9.386719 10.25 -9.808594 9.671875 -10.101562 C 9.097656 -10.394531 8.417969 -10.539062 7.640625 -10.539062 L 5.210938 -10.539062 Z "/>
</g>
</g>
</defs>
<g fill="rgb(100%, 100%, 100%)" fill-opacity="1">
<use xlink:href="#glyph-0-0" x="30" y="38.821289"/>
<use xlink:href="#glyph-0-1" x="44" y="38.821289"/>
<use xlink:href="#glyph-0-2" x="57" y="38.821289"/>
<use xlink:href="#glyph-0-1" x="71" y="38.821289"/>
<use xlink:href="#glyph-0-3" x="84" y="38.821289"/>
<use xlink:href="#glyph-0-4" x="99" y="38.821289"/>
<use xlink:href="#glyph-0-1" x="111" y="38.821289"/>
<use xlink:href="#glyph-0-5" x="124" y="38.821289"/>
</g>
</svg>
