<?xml version="1.0" encoding="UTF-8"?>
<svg xmlns="http://www.w3.org/2000/svg" xmlns:xlink="http://www.w3.org/1999/xlink" width="1080" height="1920" viewBox="0 0 1080 1920">
<defs>
<g>
<g id="glyph-0-0">
<path d="M 1.101562 0 L 1.101562 -2.707031 L 0.179688 -2.707031 L 0.179688 -3.285156 L 1.101562 -3.285156 L 1.101562 -4.007812 C 1.101562 -4.207031 1.160156 -4.367188 1.28125 -4.488281 C 1.398438 -4.605469 1.558594 -4.667969 1.761719 -4.667969 L 2.605469 -4.667969 L 2.605469 -4.085938 L 1.980469 -4.085938 C 1.851562 -4.085938 1.785156 -4.019531 1.785156 -3.886719 L 1.785156 -3.285156 L 2.734375 -3.285156 L 2.734375 -2.707031 L 1.785156 -2.707031 L 1.785156 0 Z "/>
</g>
<g id="glyph-0-1">
<path d="M 2.046875 0.09375 C 1.71875 0.09375 1.425781 0.0273438 1.171875 -0.109375 C 0.914062 -0.246094 0.714844 -0.441406 0.566406 -0.691406 C 0.421875 -0.945312 0.347656 -1.246094 0.347656 -1.59375 L 0.347656 -1.691406 C 0.347656 -2.039062 0.421875 -2.339844 0.566406 -2.589844 C 0.714844 -2.839844 0.914062 -3.035156 1.171875 -3.171875 C 1.425781 -3.3125 1.71875 -3.378906 2.046875 -3.378906 C 2.375 -3.378906 2.667969 -3.3125 2.925781 -3.171875 C 3.183594 -3.035156 3.386719 -2.839844 3.535156 -2.589844 C 3.679688 -2.339844 3.753906 -2.039062 3.753906 -1.691406 L 3.753906 -1.59375 C 3.753906 -1.246094 3.679688 -0.945312 3.535156 -0.691406 C 3.386719 -0.441406 3.183594 -0.246094 2.925781 -0.109375 C 2.667969 0.0273438 2.375 0.09375 2.046875 0.09375 M 2.046875 -0.519531 C 2.347656 -0.519531 2.59375 -0.617188 2.785156 -0.808594 C 2.972656 -1.003906 3.066406 -1.269531 3.066406 -1.613281 L 3.066406 -1.671875 C 3.066406 -2.015625 2.972656 -2.285156 2.785156 -2.476562 C 2.601562 -2.671875 2.351562 -2.765625 2.046875 -2.765625 C 1.75 -2.765625 1.503906 -2.671875 1.316406 -2.476562 C 1.128906 -2.285156 1.035156 -2.015625 1.035156 -1.671875 L 1.035156 -1.613281 C 1.035156 -1.269531 1.128906 -1.003906 1.316406 -0.808594 C 1.503906 -0.617188 1.75 -0.519531 2.046875 -0.519531 Z "/>
</g>
<g id="glyph-0-2">
<path d="M 0.507812 0 L 0.507812 -3.285156 L 1.179688 -3.285156 L 1.179688 -2.898438 L 1.285156 -2.898438 C 1.339844 -3.039062 1.425781 -3.140625 1.542969 -3.203125 C 1.660156 -3.269531 1.808594 -3.300781 1.980469 -3.300781 L 2.375 -3.300781 L 2.375 -2.679688 L 1.953125 -2.679688 C 1.730469 -2.679688 1.550781 -2.617188 1.40625 -2.496094 C 1.265625 -2.375 1.191406 -2.1875 1.191406 -1.933594 L 1.191406 0 Z "/>
</g>
<g id="glyph-0-3">
<path d="M 0.867188 0 L 0.308594 -3.285156 L 0.992188 -3.285156 L 1.40625 -0.460938 L 1.511719 -0.460938 L 2.085938 -3.285156 L 3.199219 -3.285156 L 3.765625 -0.460938 L 3.875 -0.460938 L 4.285156 -3.285156 L 4.972656 -3.285156 L 4.414062 0 L 3.261719 0 L 2.691406 -2.820312 L 2.585938 -2.820312 L 2.019531 0 Z "/>
</g>
<g id="glyph-0-4">
<path d="M 1.527344 0.09375 C 1.292969 0.09375 1.082031 0.0546875 0.898438 -0.0273438 C 0.710938 -0.105469 0.566406 -0.222656 0.457031 -0.378906 C 0.347656 -0.535156 0.292969 -0.722656 0.292969 -0.945312 C 0.292969 -1.171875 0.347656 -1.359375 0.457031 -1.511719 C 0.566406 -1.660156 0.714844 -1.769531 0.902344 -1.847656 C 1.09375 -1.921875 1.308594 -1.960938 1.546875 -1.960938 L 2.546875 -1.960938 L 2.546875 -2.171875 C 2.546875 -2.363281 2.488281 -2.519531 2.375 -2.632812 C 2.257812 -2.75 2.078125 -2.808594 1.839844 -2.808594 C 1.605469 -2.808594 1.425781 -2.75 1.300781 -2.640625 C 1.175781 -2.527344 1.09375 -2.382812 1.054688 -2.207031 L 0.414062 -2.414062 C 0.464844 -2.589844 0.550781 -2.753906 0.671875 -2.898438 C 0.789062 -3.042969 0.945312 -3.15625 1.140625 -3.246094 C 1.335938 -3.335938 1.570312 -3.378906 1.847656 -3.378906 C 2.273438 -3.378906 2.609375 -3.269531 2.851562 -3.054688 C 3.097656 -2.835938 3.21875 -2.527344 3.21875 -2.125 L 3.21875 -0.773438 C 3.21875 -0.640625 3.28125 -0.574219 3.40625 -0.574219 L 3.6875 -0.574219 L 3.6875 0 L 3.171875 0 C 3.019531 0 2.890625 -0.0390625 2.792969 -0.121094 C 2.695312 -0.199219 2.648438 -0.308594 2.648438 -0.445312 L 2.648438 -0.464844 L 2.546875 -0.464844 C 2.511719 -0.398438 2.457031 -0.320312 2.386719 -0.234375 C 2.316406 -0.144531 2.210938 -0.0664062 2.074219 -0.00390625 C 1.9375 0.0625 1.753906 0.09375 1.527344 0.09375 M 1.625 -0.472656 C 1.902344 -0.472656 2.125 -0.550781 2.292969 -0.710938 C 2.460938 -0.867188 2.546875 -1.085938 2.546875 -1.359375 L 2.546875 -1.425781 L 1.585938 -1.425781 C 1.40625 -1.425781 1.257812 -1.386719 1.148438 -1.308594 C 1.035156 -1.230469 0.980469 -1.117188 0.980469 -0.964844 C 0.980469 -0.816406 1.039062 -0.695312 1.152344 -0.605469 C 1.269531 -0.519531 1.425781 -0.472656 1.625 -0.472656 Z "/>
</g>
<g id="glyph-0-5">
<path d="M 1.867188 0.09375 C 1.59375 0.09375 1.34375 0.0273438 1.113281 -0.105469 C 0.882812 -0.238281 0.695312 -0.433594 0.558594 -0.683594 C 0.417969 -0.933594 0.347656 -1.238281 0.347656 -1.59375 L 0.347656 -1.691406 C 0.347656 -2.042969 0.414062 -2.347656 0.554688 -2.601562 C 0.691406 -2.851562 0.875 -3.046875 1.105469 -3.179688 C 1.335938 -3.3125 1.589844 -3.378906 1.867188 -3.378906 C 2.078125 -3.378906 2.257812 -3.351562 2.402344 -3.300781 C 2.546875 -3.246094 2.667969 -3.179688 2.761719 -3.097656 C 2.851562 -3.015625 2.925781 -2.929688 2.972656 -2.839844 L 3.078125 -2.839844 L 3.078125 -4.667969 L 3.765625 -4.667969 L 3.765625 0 L 3.09375 0 L 3.09375 -0.464844 L 2.988281 -0.464844 C 2.902344 -0.324219 2.773438 -0.195312 2.601562 -0.078125 C 2.433594 0.0351562 2.1875 0.09375 1.867188 0.09375 M 2.058594 -0.507812 C 2.359375 -0.507812 2.601562 -0.601562 2.796875 -0.792969 C 2.988281 -0.984375 3.085938 -1.257812 3.085938 -1.613281 L 3.085938 -1.671875 C 3.085938 -2.023438 2.992188 -2.296875 2.800781 -2.488281 C 2.609375 -2.679688 2.363281 -2.773438 2.058594 -2.773438 C 1.765625 -2.773438 1.523438 -2.679688 1.328125 -2.488281 C 1.136719 -2.296875 1.039062 -2.023438 1.039062 -1.671875 L 1.039062 -1.613281 C 1.039062 -1.257812 1.136719 -0.984375 1.328125 -0.792969 C 1.523438 -0.601562 1.765625 -0.507812 2.058594 -0.507812 Z "/>
</g>
<g id="glyph-0-6">
</g>
<g id="glyph-0-7">
<path d="M 3.492188 0.0585938 L 3.054688 -0.375 L 3.867188 -1.179688 L 4.113281 -1.339844 L 4.078125 -1.441406 L 3.785156 -1.394531 L 0.332031 -1.394531 L 0.332031 -2.019531 L 3.785156 -2.019531 L 4.078125 -1.972656 L 4.113281 -2.074219 L 3.867188 -2.234375 L 3.054688 -3.039062 L 3.492188 -3.480469 L 5.039062 -1.933594 L 5.039062 -1.480469 Z "/>
</g>
<g id="glyph-0-8">
<path d="M 0.507812 0 L 0.507812 -4.667969 L 1.191406 -4.667969 L 1.191406 0 Z "/>
</g>
<g id="glyph-0-9">
<path d="M 1.851562 0.09375 C 1.4375 0.09375 1.089844 0 0.8125 -0.1875 C 0.539062 -0.375 0.367188 -0.65625 0.308594 -1.035156 L 0.945312 -1.1875 C 0.980469 -1.003906 1.042969 -0.859375 1.125 -0.753906 C 1.210938 -0.648438 1.316406 -0.570312 1.441406 -0.527344 C 1.570312 -0.480469 1.707031 -0.460938 1.851562 -0.460938 C 2.070312 -0.460938 2.238281 -0.503906 2.355469 -0.585938 C 2.472656 -0.671875 2.535156 -0.78125 2.535156 -0.914062 C 2.535156 -1.046875 2.476562 -1.144531 2.367188 -1.207031 C 2.253906 -1.269531 2.089844 -1.320312 1.875 -1.359375 L 1.648438 -1.398438 C 1.425781 -1.441406 1.222656 -1.496094 1.039062 -1.574219 C 0.859375 -1.648438 0.714844 -1.753906 0.605469 -1.886719 C 0.5 -2.019531 0.445312 -2.191406 0.445312 -2.398438 C 0.445312 -2.710938 0.5625 -2.953125 0.792969 -3.125 C 1.023438 -3.292969 1.332031 -3.378906 1.714844 -3.378906 C 2.082031 -3.378906 2.386719 -3.296875 2.625 -3.128906 C 2.859375 -2.964844 3.015625 -2.738281 3.085938 -2.453125 L 2.445312 -2.273438 C 2.40625 -2.472656 2.320312 -2.613281 2.191406 -2.695312 C 2.0625 -2.777344 1.90625 -2.820312 1.714844 -2.820312 C 1.527344 -2.820312 1.378906 -2.785156 1.273438 -2.714844 C 1.167969 -2.648438 1.113281 -2.550781 1.113281 -2.425781 C 1.113281 -2.292969 1.164062 -2.195312 1.269531 -2.132812 C 1.375 -2.070312 1.515625 -2.023438 1.691406 -1.992188 L 1.925781 -1.953125 C 2.164062 -1.914062 2.378906 -1.859375 2.574219 -1.785156 C 2.769531 -1.714844 2.921875 -1.613281 3.035156 -1.480469 C 3.148438 -1.347656 3.207031 -1.167969 3.207031 -0.945312 C 3.207031 -0.617188 3.085938 -0.363281 2.839844 -0.179688 C 2.59375 0.00390625 2.265625 0.09375 1.851562 0.09375 Z "/>
</g>
<g id="glyph-0-10">
<path d="M 2.40625 0.09375 C 2.085938 0.09375 1.839844 0.0351562 1.671875 -0.078125 C 1.5 -0.195312 1.371094 -0.324219 1.285156 -0.464844 L 1.179688 -0.464844 L 1.179688 0 L 0.507812 0 L 0.507812 -4.667969 L 1.191406 -4.667969 L 1.191406 -2.839844 L 1.300781 -2.839844 C 1.351562 -2.929688 1.425781 -3.015625 1.511719 -3.097656 C 1.601562 -3.179688 1.71875 -3.246094 1.867188 -3.300781 C 2.011719 -3.351562 2.191406 -3.378906 2.40625 -3.378906 C 2.683594 -3.378906 2.9375 -3.3125 3.167969 -3.179688 C 3.398438 -3.046875 3.582031 -2.851562 3.71875 -2.601562 C 3.859375 -2.347656 3.925781 -2.042969 3.925781 -1.691406 L 3.925781 -1.59375 C 3.925781 -1.238281 3.855469 -0.933594 3.714844 -0.683594 C 3.578125 -0.433594 3.390625 -0.238281 3.164062 -0.105469 C 2.933594 0.0273438 2.683594 0.09375 2.40625 0.09375 M 2.207031 -0.507812 C 2.503906 -0.507812 2.75 -0.601562 2.941406 -0.792969 C 3.136719 -0.984375 3.234375 -1.257812 3.234375 -1.613281 L 3.234375 -1.671875 C 3.234375 -2.023438 3.136719 -2.296875 2.945312 -2.488281 C 2.753906 -2.679688 2.507812 -2.773438 2.207031 -2.773438 C 1.914062 -2.773438 1.671875 -2.679688 1.476562 -2.488281 C 1.285156 -2.296875 1.1875 -2.023438 1.1875 -1.671875 L 1.1875 -1.613281 C 1.1875 -1.257812 1.285156 -0.984375 1.476562 -0.792969 C 1.671875 -0.601562 1.914062 -0.507812 2.207031 -0.507812 Z "/>
</g>
<g id="glyph-0-11">
<path d="M 2.035156 0.09375 C 1.71875 0.09375 1.433594 0.0273438 1.175781 -0.105469 C 0.921875 -0.238281 0.71875 -0.433594 0.570312 -0.6875 C 0.421875 -0.941406 0.347656 -1.246094 0.347656 -1.601562 L 0.347656 -1.6875 C 0.347656 -2.042969 0.421875 -2.34375 0.570312 -2.597656 C 0.71875 -2.847656 0.921875 -3.042969 1.175781 -3.175781 C 1.433594 -3.3125 1.71875 -3.378906 2.035156 -3.378906 C 2.347656 -3.378906 2.617188 -3.320312 2.839844 -3.207031 C 3.0625 -3.089844 3.242188 -2.9375 3.375 -2.746094 C 3.511719 -2.554688 3.601562 -2.34375 3.640625 -2.113281 L 2.972656 -1.972656 C 2.949219 -2.121094 2.90625 -2.253906 2.832031 -2.375 C 2.761719 -2.492188 2.664062 -2.589844 2.535156 -2.660156 C 2.40625 -2.730469 2.242188 -2.765625 2.046875 -2.765625 C 1.855469 -2.765625 1.683594 -2.722656 1.53125 -2.636719 C 1.375 -2.550781 1.253906 -2.425781 1.167969 -2.261719 C 1.078125 -2.101562 1.035156 -1.90625 1.035156 -1.671875 L 1.035156 -1.613281 C 1.035156 -1.382812 1.078125 -1.183594 1.167969 -1.019531 C 1.253906 -0.855469 1.375 -0.730469 1.53125 -0.648438 C 1.683594 -0.5625 1.855469 -0.519531 2.046875 -0.519531 C 2.335938 -0.519531 2.554688 -0.59375 2.707031 -0.742188 C 2.859375 -0.890625 2.953125 -1.082031 2.992188 -1.3125 L 3.660156 -1.160156 C 3.605469 -0.933594 3.511719 -0.722656 3.375 -0.535156 C 3.242188 -0.34375 3.0625 -0.191406 2.839844 -0.078125 C 2.617188 0.0351562 2.347656 0.09375 2.035156 0.09375 Z "/>
</g>
<g id="glyph-0-12">
<path d="M 0.507812 0 L 0.507812 -4.667969 L 1.191406 -4.667969 L 1.191406 -2.007812 L 1.300781 -2.007812 L 2.59375 -3.285156 L 3.507812 -3.285156 L 1.847656 -1.691406 L 3.558594 0 L 2.652344 0 L 1.300781 -1.367188 L 1.191406 -1.367188 L 1.191406 0 Z "/>
</g>
<g id="glyph-0-13">
<path d="M 2.011719 0.09375 C 1.679688 0.09375 1.390625 0.0234375 1.140625 -0.117188 C 0.890625 -0.257812 0.695312 -0.453125 0.558594 -0.710938 C 0.417969 -0.964844 0.347656 -1.261719 0.347656 -1.601562 L 0.347656 -1.679688 C 0.347656 -2.023438 0.414062 -2.320312 0.554688 -2.578125 C 0.691406 -2.832031 0.882812 -3.03125 1.128906 -3.171875 C 1.375 -3.308594 1.664062 -3.378906 1.988281 -3.378906 C 2.300781 -3.378906 2.578125 -3.308594 2.816406 -3.171875 C 3.054688 -3.03125 3.238281 -2.835938 3.375 -2.585938 C 3.507812 -2.335938 3.574219 -2.046875 3.574219 -1.714844 L 3.574219 -1.453125 L 1.046875 -1.453125 C 1.054688 -1.164062 1.152344 -0.933594 1.335938 -0.761719 C 1.519531 -0.59375 1.75 -0.507812 2.027344 -0.507812 C 2.285156 -0.507812 2.480469 -0.5625 2.609375 -0.679688 C 2.742188 -0.796875 2.84375 -0.929688 2.914062 -1.078125 L 3.480469 -0.785156 C 3.417969 -0.664062 3.328125 -0.53125 3.210938 -0.394531 C 3.09375 -0.253906 2.9375 -0.140625 2.746094 -0.046875 C 2.554688 0.046875 2.3125 0.09375 2.011719 0.09375 M 1.054688 -1.980469 L 2.875 -1.980469 C 2.855469 -2.230469 2.765625 -2.421875 2.605469 -2.5625 C 2.445312 -2.703125 2.238281 -2.773438 1.980469 -2.773438 C 1.722656 -2.773438 1.511719 -2.703125 1.351562 -2.5625 C 1.1875 -2.421875 1.089844 -2.230469 1.054688 -1.980469 Z "/>
</g>
<g id="glyph-0-14">
<path d="M 1.738281 0 C 1.539062 0 1.382812 -0.0585938 1.261719 -0.179688 C 1.144531 -0.300781 1.085938 -0.460938 1.085938 -0.660156 L 1.085938 -2.707031 L 0.179688 -2.707031 L 0.179688 -3.285156 L 1.085938 -3.285156 L 1.085938 -4.375 L 1.773438 -4.375 L 1.773438 -3.285156 L 2.546875 -3.285156 L 2.546875 -2.707031 L 1.773438 -2.707031 L 1.773438 -0.78125 C 1.773438 -0.648438 1.835938 -0.578125 1.960938 -0.578125 L 2.648438 -0.578125 L 2.648438 0 L 1.738281 0 M 3.898438 0 C 3.699219 0 3.539062 -0.0585938 3.421875 -0.179688 C 3.300781 -0.300781 3.238281 -0.460938 3.238281 -0.660156 L 3.238281 -2.707031 L 2.546875 -2.707031 L 2.546875 -3.285156 L 3.238281 -3.285156 L 3.238281 -4.375 L 3.925781 -4.375 L 3.925781 -3.285156 L 4.914062 -3.285156 L 4.914062 -2.707031 L 3.925781 -2.707031 L 3.925781 -0.78125 C 3.925781 -0.648438 3.992188 -0.578125 4.121094 -0.578125 L 4.800781 -0.578125 L 4.800781 0 Z "/>
</g>
</g>
</defs>
<g fill="rgb(100%, 100%, 100%)" fill-opacity="1">
<use xlink:href="#glyph-0-0" x="30" y="26.55957"/>
<use xlink:href="#glyph-0-1" x="33" y="26.55957"/>
<use xlink:href="#glyph-0-2" x="37" y="26.55957"/>
<use xlink:href="#glyph-0-3" x="40" y="26.55957"/>
<use xlink:href="#glyph-0-4" x="45" y="26.55957"/>
<use xlink:href="#glyph-0-2" x="49" y="26.55957"/>
<use xlink:href="#glyph-0-5" x="51" y="26.55957"/>
<use xlink:href="#glyph-0-6" x="55" y="26.55957"/>
<use xlink:href="#glyph-0-7" x="57" y="26.55957"/>
<use xlink:href="#glyph-0-6" x="62" y="26.55957"/>
<use xlink:href="#glyph-0-8" x="64" y="26.55957"/>
<use xlink:href="#glyph-0-1" x="66" y="26.55957"/>
<use xlink:href="#glyph-0-9" x="70" y="26.55957"/>
<use xlink:href="#glyph-0-9" x="74" y="26.55957"/>
<use xlink:href="#glyph-0-6" x="78" y="26.55957"/>
<use xlink:href="#glyph-0-7" x="80" y="26.55957"/>
<use xlink:href="#glyph-0-6" x="85" y="26.55957"/>
<use xlink:href="#glyph-0-10" x="87" y="26.55957"/>
<use xlink:href="#glyph-0-4" x="91" y="26.55957"/>
<use xlink:href="#glyph-0-11" x="95" y="26.55957"/>
<use xlink:href="#glyph-0-12" x="99" y="26.55957"/>
<use xlink:href="#glyph-0-3" x="103" y="26.55957"/>
<use xlink:href="#glyph-0-4" x="108" y="26.55957"/>
<use xlink:href="#glyph-0-2" x="112" y="26.55957"/>
<use xlink:href="#glyph-0-5" x="114" y="26.55957"/>
<use xlink:href="#glyph-0-6" x="118" y="26.55957"/>
<use xlink:href="#glyph-0-7" x="120" y="26.55957"/>
<use xlink:href="#glyph-0-6" x="125" y="26.55957"/>
<use xlink:href="#glyph-0-10" x="127" y="26.55957"/>
<use xlink:href="#glyph-0-13" x="131" y="26.55957"/>
<use xlink:href="#glyph-0-14" x="135" y="26.55957"/>
<use xlink:href="#glyph-0-13" x="140" y="26.55957"/>
<use xlink:href="#glyph-0-2" x="144" y="26.55957"/>
</g>
</svg>
