<?xml version="1.0" encoding="UTF-8"?>
<svg xmlns="http://www.w3.org/2000/svg" xmlns:xlink="http://www.w3.org/1999/xlink" width="1080" height="1920" viewBox="0 0 1080 1920">
<defs>
<g>
<g id="glyph-0-0">
<path d="M 1.613281 -5.128906 L 4.722656 -2.511719 L 1.613281 0.105469 L 0.898438 -0.621094 L 3.183594 -2.503906 L 0.898438 -4.398438 Z "/>
</g>
<g id="glyph-0-1">
</g>
<g id="glyph-0-2">
<path d="M 4.628906 -0.234375 C 4.363281 -0.128906 4.101562 -0.046875 3.851562 0.00390625 C 3.601562 0.0585938 3.339844 0.0820312 3.070312 0.0820312 C 2.636719 0.0820312 2.253906 0.0195312 1.921875 -0.109375 C 1.585938 -0.234375 1.304688 -0.425781 1.078125 -0.679688 C 0.847656 -0.929688 0.675781 -1.242188 0.554688 -1.617188 C 0.4375 -1.988281 0.378906 -2.425781 0.378906 -2.917969 C 0.378906 -3.425781 0.441406 -3.878906 0.570312 -4.273438 C 0.699219 -4.667969 0.886719 -5 1.125 -5.273438 C 1.363281 -5.546875 1.65625 -5.753906 2 -5.894531 C 2.339844 -6.039062 2.726562 -6.109375 3.152344 -6.109375 C 3.292969 -6.109375 3.421875 -6.105469 3.542969 -6.101562 C 3.664062 -6.09375 3.785156 -6.082031 3.902344 -6.066406 C 4.019531 -6.050781 4.136719 -6.027344 4.257812 -6 C 4.375 -5.972656 4.5 -5.9375 4.628906 -5.894531 L 4.628906 -4.769531 C 4.367188 -4.890625 4.121094 -4.980469 3.882812 -5.03125 C 3.644531 -5.082031 3.429688 -5.109375 3.238281 -5.109375 C 2.953125 -5.109375 2.707031 -5.058594 2.503906 -4.953125 C 2.300781 -4.851562 2.132812 -4.707031 2.003906 -4.519531 C 1.871094 -4.335938 1.777344 -4.113281 1.714844 -3.855469 C 1.652344 -3.601562 1.625 -3.320312 1.625 -3.011719 C 1.625 -2.683594 1.65625 -2.394531 1.71875 -2.136719 C 1.78125 -1.878906 1.878906 -1.664062 2.011719 -1.484375 C 2.144531 -1.304688 2.3125 -1.171875 2.519531 -1.078125 C 2.722656 -0.984375 2.96875 -0.9375 3.25 -0.9375 C 3.351562 -0.9375 3.460938 -0.945312 3.582031 -0.964844 C 3.699219 -0.984375 3.820312 -1.011719 3.941406 -1.042969 C 4.0625 -1.078125 4.183594 -1.113281 4.300781 -1.160156 C 4.417969 -1.203125 4.527344 -1.25 4.628906 -1.296875 Z "/>
</g>
<g id="glyph-0-3">
<path d="M 5.023438 -3.039062 C 5.023438 -2.492188 4.957031 -2.019531 4.832031 -1.625 C 4.703125 -1.226562 4.527344 -0.902344 4.304688 -0.644531 C 4.082031 -0.390625 3.820312 -0.203125 3.519531 -0.078125 C 3.222656 0.0429688 2.902344 0.105469 2.558594 0.105469 C 1.765625 0.105469 1.167969 -0.15625 0.769531 -0.683594 C 0.371094 -1.210938 0.171875 -1.976562 0.171875 -2.984375 C 0.171875 -3.53125 0.234375 -4.003906 0.363281 -4.398438 C 0.488281 -4.796875 0.664062 -5.121094 0.886719 -5.375 C 1.109375 -5.632812 1.371094 -5.820312 1.671875 -5.945312 C 1.972656 -6.066406 2.292969 -6.128906 2.632812 -6.128906 C 3.425781 -6.128906 4.023438 -5.867188 4.421875 -5.339844 C 4.820312 -4.8125 5.023438 -4.046875 5.023438 -3.039062 M 3.824219 -2.984375 C 3.824219 -3.695312 3.726562 -4.230469 3.535156 -4.578125 C 3.347656 -4.929688 3.03125 -5.105469 2.597656 -5.105469 C 2.378906 -5.105469 2.191406 -5.058594 2.039062 -4.96875 C 1.882812 -4.878906 1.757812 -4.746094 1.65625 -4.570312 C 1.558594 -4.394531 1.484375 -4.179688 1.4375 -3.921875 C 1.394531 -3.664062 1.371094 -3.371094 1.371094 -3.039062 C 1.371094 -2.324219 1.464844 -1.792969 1.65625 -1.441406 C 1.851562 -1.09375 2.164062 -0.917969 2.597656 -0.917969 C 2.8125 -0.917969 3 -0.964844 3.15625 -1.054688 C 3.3125 -1.144531 3.4375 -1.277344 3.535156 -1.453125 C 3.636719 -1.628906 3.707031 -1.84375 3.753906 -2.101562 C 3.800781 -2.355469 3.824219 -2.652344 3.824219 -2.984375 Z "/>
</g>
<g id="glyph-0-4">
<path d="M 3.414062 0 L 1.796875 -3.597656 L 1.464844 -4.371094 L 1.464844 0 L 0.433594 0 L 0.433594 -6.027344 L 1.824219 -6.027344 L 3.472656 -2.40625 L 3.761719 -1.703125 L 3.761719 -6.027344 L 4.796875 -6.027344 L 4.796875 0 Z "/>
</g>
<g id="glyph-0-5">
<path d="M 2 -5.066406 L 2 -3.398438 L 4.28125 -3.398438 L 4.28125 -2.46875 L 2 -2.46875 L 2 0 L 0.847656 0 L 0.847656 -6.027344 L 4.410156 -6.027344 L 4.410156 -5.066406 Z "/>
</g>
<g id="glyph-0-6">
<path d="M 0.691406 -5.101562 L 0.691406 -6.027344 L 4.5 -6.027344 L 4.5 -5.101562 L 3.171875 -5.101562 L 3.171875 -0.9375 L 4.5 -0.9375 L 4.5 0 L 0.691406 0 L 0.691406 -0.9375 L 2.019531 -0.9375 L 2.019531 -5.101562 Z "/>
</g>
<g id="glyph-0-7">
<path d="M 4.949219 -3.089844 C 4.949219 -2.621094 4.890625 -2.199219 4.773438 -1.816406 C 4.660156 -1.4375 4.480469 -1.109375 4.234375 -0.839844 C 3.992188 -0.574219 3.679688 -0.363281 3.296875 -0.21875 C 2.914062 -0.0742188 2.460938 0 1.925781 0 L 0.398438 0 L 0.398438 -6.027344 L 2.179688 -6.027344 C 2.640625 -6.027344 3.046875 -5.96875 3.390625 -5.855469 C 3.738281 -5.738281 4.027344 -5.5625 4.257812 -5.320312 C 4.488281 -5.082031 4.660156 -4.777344 4.773438 -4.410156 C 4.890625 -4.039062 4.949219 -3.601562 4.949219 -3.089844 M 3.730469 -3.015625 C 3.730469 -3.339844 3.703125 -3.632812 3.652344 -3.886719 C 3.601562 -4.140625 3.511719 -4.359375 3.386719 -4.535156 C 3.261719 -4.710938 3.097656 -4.847656 2.886719 -4.9375 C 2.675781 -5.03125 2.417969 -5.078125 2.105469 -5.078125 L 1.53125 -5.078125 L 1.53125 -0.949219 L 2.027344 -0.949219 C 2.585938 -0.949219 3.007812 -1.117188 3.296875 -1.449219 C 3.585938 -1.78125 3.730469 -2.300781 3.730469 -3.015625 Z "/>
</g>
<g id="glyph-0-8">
<path d="M 0.847656 0 L 0.847656 -6.027344 L 4.476562 -6.027344 L 4.476562 -5.066406 L 2 -5.066406 L 2 -3.570312 L 4.363281 -3.570312 L 4.363281 -2.632812 L 2 -2.632812 L 2 -0.960938 L 4.476562 -0.960938 L 4.476562 0 Z "/>
</g>
<g id="glyph-0-9">
<path d="M 2.597656 -4.730469 C 2.714844 -4.730469 2.820312 -4.710938 2.921875 -4.667969 C 3.023438 -4.625 3.113281 -4.5625 3.1875 -4.488281 C 3.261719 -4.414062 3.320312 -4.324219 3.363281 -4.222656 C 3.40625 -4.121094 3.425781 -4.015625 3.425781 -3.902344 C 3.425781 -3.785156 3.40625 -3.675781 3.363281 -3.574219 C 3.320312 -3.472656 3.261719 -3.382812 3.1875 -3.3125 C 3.113281 -3.238281 3.023438 -3.179688 2.921875 -3.136719 C 2.820312 -3.09375 2.714844 -3.070312 2.597656 -3.070312 C 2.480469 -3.070312 2.371094 -3.09375 2.269531 -3.136719 C 2.171875 -3.179688 2.082031 -3.238281 2.007812 -3.3125 C 1.933594 -3.382812 1.875 -3.472656 1.832031 -3.574219 C 1.789062 -3.675781 1.765625 -3.785156 1.765625 -3.902344 C 1.765625 -4.015625 1.789062 -4.121094 1.832031 -4.222656 C 1.875 -4.324219 1.933594 -4.414062 2.007812 -4.488281 C 2.082031 -4.5625 2.171875 -4.625 2.269531 -4.667969 C 2.371094 -4.710938 2.480469 -4.730469 2.597656 -4.730469 M 2.597656 -1.554688 C 2.714844 -1.554688 2.820312 -1.53125 2.921875 -1.488281 C 3.023438 -1.445312 3.113281 -1.386719 3.1875 -1.3125 C 3.261719 -1.242188 3.320312 -1.152344 3.363281 -1.050781 C 3.40625 -0.949219 3.425781 -0.84375 3.425781 -0.730469 C 3.425781 -0.613281 3.40625 -0.503906 3.363281 -0.402344 C 3.320312 -0.300781 3.261719 -0.210938 3.1875 -0.136719 C 3.113281 -0.0625 3.023438 0 2.921875 0.0429688 C 2.820312 0.0859375 2.714844 0.105469 2.597656 0.105469 C 2.480469 0.105469 2.371094 0.0859375 2.269531 0.0429688 C 2.171875 0 2.082031 -0.0625 2.007812 -0.136719 C 1.933594 -0.210938 1.875 -0.300781 1.832031 -0.402344 C 1.789062 -0.503906 1.765625 -0.613281 1.765625 -0.730469 C 1.765625 -0.84375 1.789062 -0.949219 1.832031 -1.050781 C 1.875 -1.152344 1.933594 -1.242188 2.007812 -1.3125 C 2.082031 -1.386719 2.171875 -1.445312 2.269531 -1.488281 C 2.371094 -1.53125 2.480469 -1.554688 2.597656 -1.554688 Z "/>
</g>
<g id="glyph-0-10">
<path d="M 4.710938 -3.371094 C 4.710938 -2.898438 4.671875 -2.484375 4.59375 -2.132812 C 4.511719 -1.78125 4.398438 -1.480469 4.253906 -1.230469 C 4.109375 -0.980469 3.933594 -0.777344 3.730469 -0.617188 C 3.527344 -0.457031 3.300781 -0.332031 3.054688 -0.238281 C 2.808594 -0.148438 2.542969 -0.0859375 2.261719 -0.0507812 C 1.980469 -0.015625 1.6875 0 1.386719 0 L 0.691406 0 L 0.691406 -0.964844 L 1.511719 -0.964844 C 1.871094 -0.964844 2.171875 -0.996094 2.414062 -1.058594 C 2.65625 -1.121094 2.851562 -1.214844 3 -1.335938 C 3.148438 -1.457031 3.257812 -1.609375 3.332031 -1.789062 C 3.402344 -1.96875 3.453125 -2.179688 3.476562 -2.417969 L 3.484375 -2.53125 C 3.324219 -2.453125 3.136719 -2.390625 2.929688 -2.34375 C 2.71875 -2.292969 2.507812 -2.269531 2.296875 -2.269531 C 2.003906 -2.269531 1.738281 -2.300781 1.5 -2.371094 C 1.257812 -2.4375 1.050781 -2.546875 0.878906 -2.691406 C 0.703125 -2.839844 0.570312 -3.03125 0.476562 -3.265625 C 0.378906 -3.503906 0.332031 -3.785156 0.332031 -4.117188 C 0.332031 -4.417969 0.386719 -4.695312 0.496094 -4.941406 C 0.605469 -5.1875 0.757812 -5.398438 0.953125 -5.574219 C 1.148438 -5.75 1.378906 -5.886719 1.648438 -5.984375 C 1.917969 -6.078125 2.210938 -6.128906 2.53125 -6.128906 C 2.84375 -6.128906 3.136719 -6.082031 3.402344 -5.996094 C 3.667969 -5.90625 3.898438 -5.753906 4.09375 -5.539062 C 4.289062 -5.328125 4.441406 -5.042969 4.550781 -4.691406 C 4.660156 -4.335938 4.710938 -3.898438 4.710938 -3.371094 M 2.476562 -5.183594 C 2.328125 -5.183594 2.195312 -5.160156 2.074219 -5.109375 C 1.957031 -5.058594 1.851562 -4.992188 1.769531 -4.902344 C 1.683594 -4.8125 1.617188 -4.707031 1.574219 -4.582031 C 1.527344 -4.457031 1.503906 -4.316406 1.503906 -4.164062 C 1.503906 -3.839844 1.589844 -3.597656 1.761719 -3.4375 C 1.933594 -3.28125 2.171875 -3.199219 2.476562 -3.199219 C 2.558594 -3.199219 2.648438 -3.207031 2.742188 -3.222656 C 2.835938 -3.238281 2.929688 -3.261719 3.023438 -3.289062 C 3.117188 -3.316406 3.207031 -3.347656 3.289062 -3.382812 C 3.375 -3.417969 3.449219 -3.457031 3.515625 -3.496094 C 3.515625 -3.769531 3.496094 -4.011719 3.460938 -4.21875 C 3.425781 -4.429688 3.367188 -4.605469 3.285156 -4.746094 C 3.203125 -4.890625 3.097656 -5 2.964844 -5.074219 C 2.832031 -5.144531 2.671875 -5.183594 2.476562 -5.183594 Z "/>
</g>
<g id="glyph-0-11">
<path d="M 2.570312 -1.703125 C 2.699219 -1.703125 2.816406 -1.679688 2.929688 -1.628906 C 3.039062 -1.582031 3.136719 -1.519531 3.214844 -1.4375 C 3.296875 -1.355469 3.363281 -1.257812 3.40625 -1.148438 C 3.453125 -1.039062 3.476562 -0.917969 3.476562 -0.792969 C 3.476562 -0.671875 3.453125 -0.554688 3.40625 -0.445312 C 3.363281 -0.335938 3.296875 -0.242188 3.214844 -0.160156 C 3.136719 -0.078125 3.039062 -0.0117188 2.929688 0.0351562 C 2.816406 0.0820312 2.699219 0.105469 2.570312 0.105469 C 2.445312 0.105469 2.332031 0.0820312 2.222656 0.0351562 C 2.113281 -0.0117188 2.019531 -0.078125 1.941406 -0.160156 C 1.863281 -0.242188 1.796875 -0.335938 1.753906 -0.445312 C 1.707031 -0.554688 1.683594 -0.671875 1.683594 -0.792969 C 1.683594 -0.917969 1.707031 -1.039062 1.753906 -1.148438 C 1.796875 -1.257812 1.863281 -1.355469 1.941406 -1.4375 C 2.019531 -1.519531 2.113281 -1.582031 2.222656 -1.628906 C 2.332031 -1.679688 2.445312 -1.703125 2.570312 -1.703125 Z "/>
</g>
<g id="glyph-0-12">
<path d="M 3.597656 -3.191406 C 3.746094 -3.109375 3.890625 -3.015625 4.027344 -2.917969 C 4.164062 -2.816406 4.285156 -2.703125 4.386719 -2.570312 C 4.492188 -2.441406 4.570312 -2.292969 4.632812 -2.128906 C 4.691406 -1.964844 4.722656 -1.777344 4.722656 -1.566406 C 4.722656 -1.292969 4.667969 -1.054688 4.554688 -0.84375 C 4.445312 -0.636719 4.292969 -0.460938 4.097656 -0.316406 C 3.902344 -0.175781 3.671875 -0.0703125 3.410156 0 C 3.148438 0.0703125 2.863281 0.105469 2.558594 0.105469 C 2.222656 0.105469 1.921875 0.0703125 1.664062 -0.00390625 C 1.402344 -0.0742188 1.183594 -0.175781 1.007812 -0.308594 C 0.832031 -0.441406 0.695312 -0.601562 0.605469 -0.789062 C 0.515625 -0.976562 0.46875 -1.183594 0.46875 -1.414062 C 0.46875 -1.621094 0.5 -1.804688 0.558594 -1.964844 C 0.621094 -2.128906 0.703125 -2.273438 0.808594 -2.40625 C 0.910156 -2.539062 1.03125 -2.65625 1.167969 -2.761719 C 1.304688 -2.867188 1.449219 -2.964844 1.605469 -3.050781 C 1.464844 -3.132812 1.335938 -3.21875 1.214844 -3.316406 C 1.09375 -3.410156 0.988281 -3.519531 0.894531 -3.636719 C 0.800781 -3.757812 0.730469 -3.890625 0.675781 -4.039062 C 0.621094 -4.1875 0.59375 -4.355469 0.59375 -4.542969 C 0.59375 -4.761719 0.636719 -4.964844 0.722656 -5.15625 C 0.804688 -5.351562 0.933594 -5.519531 1.101562 -5.664062 C 1.265625 -5.808594 1.476562 -5.921875 1.730469 -6.003906 C 1.984375 -6.085938 2.28125 -6.128906 2.625 -6.128906 C 2.9375 -6.128906 3.21875 -6.09375 3.464844 -6.03125 C 3.710938 -5.964844 3.914062 -5.867188 4.082031 -5.746094 C 4.25 -5.621094 4.378906 -5.476562 4.464844 -5.304688 C 4.554688 -5.132812 4.597656 -4.945312 4.597656 -4.742188 C 4.597656 -4.550781 4.570312 -4.378906 4.519531 -4.222656 C 4.46875 -4.070312 4.394531 -3.929688 4.308594 -3.808594 C 4.21875 -3.683594 4.113281 -3.570312 3.988281 -3.46875 C 3.867188 -3.371094 3.734375 -3.277344 3.597656 -3.191406 M 2.710938 -3.625 C 2.820312 -3.6875 2.925781 -3.75 3.023438 -3.820312 C 3.121094 -3.890625 3.203125 -3.964844 3.273438 -4.046875 C 3.34375 -4.132812 3.402344 -4.222656 3.445312 -4.320312 C 3.488281 -4.417969 3.507812 -4.527344 3.507812 -4.648438 C 3.507812 -4.847656 3.429688 -5 3.273438 -5.105469 C 3.117188 -5.210938 2.890625 -5.261719 2.597656 -5.261719 C 2.308594 -5.261719 2.085938 -5.207031 1.925781 -5.101562 C 1.769531 -4.992188 1.691406 -4.832031 1.691406 -4.617188 C 1.691406 -4.5 1.71875 -4.394531 1.769531 -4.300781 C 1.824219 -4.210938 1.894531 -4.125 1.988281 -4.046875 C 2.078125 -3.96875 2.1875 -3.894531 2.3125 -3.828125 C 2.4375 -3.761719 2.570312 -3.691406 2.710938 -3.625 M 2.476562 -2.605469 C 2.355469 -2.539062 2.242188 -2.472656 2.136719 -2.398438 C 2.03125 -2.324219 1.9375 -2.242188 1.859375 -2.152344 C 1.78125 -2.0625 1.71875 -1.964844 1.675781 -1.859375 C 1.628906 -1.753906 1.605469 -1.636719 1.605469 -1.503906 C 1.605469 -1.269531 1.695312 -1.089844 1.875 -0.96875 C 2.058594 -0.84375 2.296875 -0.785156 2.597656 -0.785156 C 2.730469 -0.785156 2.859375 -0.796875 2.980469 -0.824219 C 3.097656 -0.851562 3.203125 -0.894531 3.292969 -0.953125 C 3.386719 -1.011719 3.457031 -1.085938 3.507812 -1.179688 C 3.5625 -1.269531 3.585938 -1.378906 3.585938 -1.503906 C 3.585938 -1.632812 3.558594 -1.75 3.5 -1.851562 C 3.441406 -1.953125 3.363281 -2.050781 3.261719 -2.136719 C 3.160156 -2.222656 3.039062 -2.300781 2.90625 -2.378906 C 2.769531 -2.457031 2.625 -2.53125 2.476562 -2.605469 Z "/>
</g>
<g id="glyph-0-13">
<path d="M 2.253906 0 L 0.980469 0 L 3.378906 -4.9375 L 0.488281 -4.9375 L 0.488281 -6.027344 L 4.675781 -6.027344 L 4.675781 -5.042969 Z "/>
</g>
<g id="glyph-0-14">
<path d="M 0.59375 0 L 0.59375 -0.828125 L 2.019531 -2.253906 C 2.289062 -2.523438 2.5 -2.753906 2.664062 -2.945312 C 2.824219 -3.140625 2.949219 -3.3125 3.035156 -3.464844 C 3.125 -3.617188 3.183594 -3.757812 3.210938 -3.886719 C 3.238281 -4.015625 3.25 -4.148438 3.25 -4.289062 C 3.25 -4.402344 3.234375 -4.511719 3.195312 -4.613281 C 3.160156 -4.714844 3.105469 -4.804688 3.035156 -4.882812 C 2.964844 -4.957031 2.875 -5.015625 2.765625 -5.0625 C 2.660156 -5.105469 2.535156 -5.128906 2.398438 -5.128906 C 2.160156 -5.128906 1.941406 -5.078125 1.738281 -4.972656 C 1.535156 -4.871094 1.34375 -4.734375 1.160156 -4.5625 L 0.566406 -5.324219 C 0.828125 -5.570312 1.121094 -5.761719 1.449219 -5.910156 C 1.777344 -6.054688 2.132812 -6.128906 2.511719 -6.128906 C 2.808594 -6.128906 3.074219 -6.089844 3.316406 -6.015625 C 3.554688 -5.941406 3.761719 -5.828125 3.929688 -5.679688 C 4.101562 -5.535156 4.234375 -5.347656 4.328125 -5.128906 C 4.421875 -4.90625 4.46875 -4.652344 4.46875 -4.363281 C 4.46875 -4.121094 4.4375 -3.898438 4.371094 -3.691406 C 4.308594 -3.484375 4.214844 -3.28125 4.089844 -3.085938 C 3.96875 -2.886719 3.816406 -2.691406 3.636719 -2.496094 C 3.457031 -2.296875 3.25 -2.089844 3.019531 -1.871094 L 2.144531 -1.039062 L 4.683594 -1.039062 L 4.683594 0 Z "/>
</g>
<g id="glyph-0-15">
<path d="M 0.917969 0 L 0 0 L 4.28125 -6.515625 L 5.191406 -6.515625 L 0.917969 0 M 2.664062 -5.210938 C 2.664062 -5.003906 2.636719 -4.816406 2.578125 -4.640625 C 2.519531 -4.46875 2.4375 -4.316406 2.328125 -4.1875 C 2.21875 -4.0625 2.082031 -3.960938 1.925781 -3.890625 C 1.765625 -3.820312 1.585938 -3.785156 1.386719 -3.785156 C 0.996094 -3.785156 0.695312 -3.902344 0.476562 -4.136719 C 0.261719 -4.371094 0.152344 -4.714844 0.152344 -5.175781 C 0.152344 -5.378906 0.179688 -5.570312 0.238281 -5.742188 C 0.292969 -5.917969 0.378906 -6.066406 0.488281 -6.195312 C 0.59375 -6.324219 0.730469 -6.421875 0.886719 -6.496094 C 1.046875 -6.566406 1.226562 -6.601562 1.425781 -6.601562 C 1.816406 -6.601562 2.121094 -6.488281 2.339844 -6.253906 C 2.554688 -6.019531 2.664062 -5.671875 2.664062 -5.210938 M 1.84375 -5.191406 C 1.84375 -5.433594 1.808594 -5.613281 1.734375 -5.730469 C 1.660156 -5.84375 1.550781 -5.902344 1.40625 -5.902344 C 1.117188 -5.902344 0.972656 -5.664062 0.972656 -5.191406 C 0.972656 -4.953125 1.011719 -4.773438 1.082031 -4.660156 C 1.15625 -4.542969 1.265625 -4.488281 1.40625 -4.488281 C 1.699219 -4.488281 1.84375 -4.722656 1.84375 -5.191406 M 5.042969 -1.34375 C 5.042969 -1.136719 5.015625 -0.945312 4.957031 -0.773438 C 4.898438 -0.597656 4.816406 -0.449219 4.707031 -0.320312 C 4.597656 -0.191406 4.464844 -0.09375 4.304688 -0.0234375 C 4.144531 0.046875 3.96875 0.0820312 3.765625 0.0820312 C 3.378906 0.0820312 3.074219 -0.03125 2.855469 -0.265625 C 2.640625 -0.496094 2.53125 -0.84375 2.53125 -1.304688 C 2.53125 -1.515625 2.558594 -1.707031 2.617188 -1.878906 C 2.671875 -2.054688 2.757812 -2.203125 2.867188 -2.328125 C 2.976562 -2.453125 3.109375 -2.554688 3.265625 -2.625 C 3.425781 -2.699219 3.605469 -2.734375 3.804688 -2.734375 C 4.195312 -2.734375 4.5 -2.617188 4.71875 -2.382812 C 4.9375 -2.152344 5.042969 -1.804688 5.042969 -1.34375 M 4.222656 -1.324219 C 4.222656 -1.566406 4.1875 -1.746094 4.113281 -1.859375 C 4.039062 -1.976562 3.929688 -2.035156 3.785156 -2.035156 C 3.496094 -2.035156 3.351562 -1.796875 3.351562 -1.324219 C 3.351562 -1.082031 3.390625 -0.902344 3.464844 -0.789062 C 3.535156 -0.675781 3.644531 -0.617188 3.785156 -0.617188 C 4.078125 -0.617188 4.222656 -0.851562 4.222656 -1.324219 Z "/>
</g>
</g>
</defs>
<g fill="rgb(51.372549%, 75.686275%, 40.392157%)" fill-opacity="1">
<use xlink:href="#glyph-0-0" x="30" y="27.013672"/>
<use xlink:href="#glyph-0-1" x="35" y="27.013672"/>
<use xlink:href="#glyph-0-2" x="40" y="27.013672"/>
<use xlink:href="#glyph-0-3" x="45" y="27.013672"/>
<use xlink:href="#glyph-0-4" x="50" y="27.013672"/>
<use xlink:href="#glyph-0-5" x="55" y="27.013672"/>
<use xlink:href="#glyph-0-6" x="60" y="27.013672"/>
<use xlink:href="#glyph-0-7" x="65" y="27.013672"/>
<use xlink:href="#glyph-0-8" x="70" y="27.013672"/>
<use xlink:href="#glyph-0-4" x="75" y="27.013672"/>
<use xlink:href="#glyph-0-2" x="80" y="27.013672"/>
<use xlink:href="#glyph-0-8" x="85" y="27.013672"/>
<use xlink:href="#glyph-0-9" x="90" y="27.013672"/>
<use xlink:href="#glyph-0-1" x="95" y="27.013672"/>
<use xlink:href="#glyph-0-10" x="100" y="27.013672"/>
<use xlink:href="#glyph-0-10" x="105" y="27.013672"/>
<use xlink:href="#glyph-0-11" x="110" y="27.013672"/>
<use xlink:href="#glyph-0-12" x="115" y="27.013672"/>
<use xlink:href="#glyph-0-13" x="120" y="27.013672"/>
<use xlink:href="#glyph-0-14" x="125" y="27.013672"/>
<use xlink:href="#glyph-0-15" x="130" y="27.013672"/>
</g>
</svg>
