<?xml version="1.0" encoding="UTF-8"?>
<svg xmlns="http://www.w3.org/2000/svg" xmlns:xlink="http://www.w3.org/1999/xlink" width="1080" height="1920" viewBox="0 0 1080 1920">
<defs>
<g>
<g id="glyph-0-0">
<path d="M 9.265625 0 L 9.265625 -12.054688 L 12.675781 -12.054688 L 12.675781 0 L 9.265625 0 M 1.207031 0 L 1.207031 -12.054688 L 4.617188 -12.054688 L 4.617188 0 L 1.207031 0 M 4.375 -4.703125 L 4.375 -7.527344 L 9.507812 -7.527344 L 9.507812 -4.703125 Z "/>
</g>
<g id="glyph-0-1">
<path d="M 7.285156 0.242188 C 6.320312 0.242188 5.429688 0.0859375 4.617188 -0.222656 C 3.800781 -0.535156 3.089844 -0.972656 2.488281 -1.542969 C 1.886719 -2.109375 1.417969 -2.773438 1.085938 -3.53125 C 0.753906 -4.289062 0.585938 -5.121094 0.585938 -6.027344 C 0.585938 -6.933594 0.753906 -7.765625 1.085938 -8.523438 C 1.417969 -9.28125 1.886719 -9.945312 2.488281 -10.515625 C 3.089844 -11.082031 3.800781 -11.523438 4.617188 -11.832031 C 5.429688 -12.140625 6.320312 -12.296875 7.285156 -12.296875 C 8.261719 -12.296875 9.152344 -12.140625 9.964844 -11.832031 C 10.773438 -11.523438 11.476562 -11.082031 12.074219 -10.515625 C 12.671875 -9.945312 13.136719 -9.28125 13.476562 -8.523438 C 13.816406 -7.765625 13.984375 -6.933594 13.984375 -6.027344 C 13.984375 -5.121094 13.816406 -4.285156 13.476562 -3.523438 C 13.136719 -2.757812 12.671875 -2.09375 12.074219 -1.53125 C 11.476562 -0.96875 10.773438 -0.535156 9.964844 -0.222656 C 9.152344 0.0859375 8.261719 0.242188 7.285156 0.242188 M 7.285156 -2.582031 C 7.746094 -2.582031 8.171875 -2.664062 8.566406 -2.824219 C 8.964844 -2.984375 9.308594 -3.21875 9.601562 -3.523438 C 9.894531 -3.828125 10.125 -4.191406 10.289062 -4.617188 C 10.457031 -5.039062 10.539062 -5.511719 10.539062 -6.027344 C 10.539062 -6.554688 10.457031 -7.03125 10.289062 -7.449219 C 10.125 -7.867188 9.894531 -8.230469 9.601562 -8.535156 C 9.308594 -8.839844 8.964844 -9.070312 8.566406 -9.230469 C 8.171875 -9.390625 7.746094 -9.472656 7.285156 -9.472656 C 6.824219 -9.472656 6.398438 -9.390625 6.003906 -9.230469 C 5.605469 -9.070312 5.261719 -8.839844 4.96875 -8.535156 C 4.675781 -8.230469 4.445312 -7.867188 4.28125 -7.449219 C 4.113281 -7.03125 4.03125 -6.554688 4.03125 -6.027344 C 4.03125 -5.511719 4.113281 -5.039062 4.28125 -4.617188 C 4.445312 -4.191406 4.675781 -3.828125 4.96875 -3.523438 C 5.261719 -3.21875 5.605469 -2.984375 6.003906 -2.824219 C 6.398438 -2.664062 6.824219 -2.582031 7.285156 -2.582031 Z "/>
</g>
<g id="glyph-0-2">
<path d="M 4.183594 0 L 0.277344 -12.054688 L 3.789062 -12.054688 L 7.078125 -1.617188 L 5.304688 -1.617188 L 8.765625 -12.054688 L 11.902344 -12.054688 L 15.171875 -1.617188 L 13.46875 -1.617188 L 16.859375 -12.054688 L 20.117188 -12.054688 L 16.207031 0 L 12.554688 0 L 9.765625 -8.871094 L 10.746094 -8.871094 L 7.835938 0 Z "/>
</g>
<g id="glyph-0-3">
</g>
<g id="glyph-0-4">
<path d="M -0.242188 0 L 5.082031 -12.054688 L 8.4375 -12.054688 L 13.777344 0 L 10.230469 0 L 6.0625 -10.386719 L 7.40625 -10.386719 L 3.238281 0 L -0.242188 0 M 2.667969 -2.34375 L 3.546875 -4.855469 L 9.4375 -4.855469 L 10.316406 -2.34375 Z "/>
</g>
<g id="glyph-0-5">
<path d="M 1.207031 0 L 1.207031 -12.054688 L 4.617188 -12.054688 L 4.617188 0 Z "/>
</g>
<g id="glyph-0-6">
<path d="M 1.207031 0 L 1.207031 -12.054688 L 6.597656 -12.054688 C 8.351562 -12.054688 9.703125 -11.65625 10.652344 -10.859375 C 11.597656 -10.0625 12.074219 -8.972656 12.074219 -7.59375 C 12.074219 -6.6875 11.855469 -5.90625 11.417969 -5.246094 C 10.980469 -4.585938 10.363281 -4.078125 9.566406 -3.730469 C 8.769531 -3.378906 7.820312 -3.203125 6.71875 -3.203125 L 3.101562 -3.203125 L 4.617188 -4.632812 L 4.617188 0 L 1.207031 0 M 8.664062 0 L 5.667969 -4.390625 L 9.300781 -4.390625 L 12.3125 0 L 8.664062 0 M 4.617188 -4.269531 L 3.101562 -5.839844 L 6.511719 -5.839844 C 7.222656 -5.839844 7.753906 -5.992188 8.101562 -6.304688 C 8.453125 -6.613281 8.628906 -7.042969 8.628906 -7.59375 C 8.628906 -8.15625 8.453125 -8.59375 8.101562 -8.902344 C 7.753906 -9.214844 7.222656 -9.367188 6.511719 -9.367188 L 3.101562 -9.367188 L 4.617188 -10.9375 Z "/>
</g>
<g id="glyph-0-7">
<path d="M 4.253906 -2.667969 L 4.066406 -6.492188 L 9.25 -12.054688 L 13.003906 -12.054688 L 7.835938 -6.457031 L 5.941406 -4.476562 L 4.253906 -2.667969 M 1.207031 0 L 1.207031 -12.054688 L 4.582031 -12.054688 L 4.582031 0 L 1.207031 0 M 9.300781 0 L 5.375 -4.976562 L 7.59375 -7.355469 L 13.261719 0 Z "/>
</g>
<g id="glyph-0-8">
<path d="M 5.441406 0.242188 C 4.453125 0.242188 3.503906 0.117188 2.59375 -0.128906 C 1.679688 -0.375 0.9375 -0.695312 0.363281 -1.085938 L 1.480469 -3.597656 C 2.019531 -3.253906 2.644531 -2.972656 3.351562 -2.746094 C 4.054688 -2.523438 4.757812 -2.410156 5.460938 -2.410156 C 5.929688 -2.410156 6.308594 -2.453125 6.597656 -2.539062 C 6.882812 -2.625 7.09375 -2.742188 7.226562 -2.886719 C 7.355469 -3.027344 7.421875 -3.199219 7.421875 -3.394531 C 7.421875 -3.667969 7.296875 -3.886719 7.042969 -4.046875 C 6.792969 -4.207031 6.464844 -4.339844 6.0625 -4.445312 C 5.660156 -4.546875 5.214844 -4.648438 4.726562 -4.753906 C 4.238281 -4.855469 3.75 -4.988281 3.265625 -5.148438 C 2.777344 -5.308594 2.332031 -5.519531 1.929688 -5.777344 C 1.527344 -6.035156 1.199219 -6.375 0.945312 -6.792969 C 0.695312 -7.214844 0.566406 -7.746094 0.566406 -8.386719 C 0.566406 -9.109375 0.765625 -9.765625 1.164062 -10.351562 C 1.558594 -10.9375 2.152344 -11.40625 2.945312 -11.761719 C 3.738281 -12.117188 4.726562 -12.296875 5.90625 -12.296875 C 6.699219 -12.296875 7.476562 -12.207031 8.242188 -12.03125 C 9.003906 -11.851562 9.683594 -11.589844 10.28125 -11.246094 L 9.230469 -8.714844 C 8.65625 -9.023438 8.089844 -9.257812 7.527344 -9.414062 C 6.964844 -9.566406 6.417969 -9.644531 5.890625 -9.644531 C 5.417969 -9.644531 5.039062 -9.597656 4.753906 -9.5 C 4.464844 -9.402344 4.257812 -9.273438 4.132812 -9.109375 C 4.007812 -8.949219 3.945312 -8.765625 3.945312 -8.558594 C 3.945312 -8.296875 4.066406 -8.085938 4.3125 -7.929688 C 4.5625 -7.777344 4.886719 -7.648438 5.296875 -7.550781 C 5.703125 -7.453125 6.152344 -7.355469 6.640625 -7.25 C 7.128906 -7.148438 7.617188 -7.019531 8.101562 -6.863281 C 8.589844 -6.707031 9.035156 -6.5 9.4375 -6.242188 C 9.839844 -5.984375 10.164062 -5.644531 10.410156 -5.226562 C 10.65625 -4.808594 10.78125 -4.28125 10.78125 -3.652344 C 10.78125 -2.949219 10.582031 -2.304688 10.1875 -1.714844 C 9.792969 -1.121094 9.199219 -0.648438 8.414062 -0.292969 C 7.625 0.0625 6.636719 0.242188 5.441406 0.242188 Z "/>
</g>
</g>
</defs>
<g fill="rgb(100%, 100%, 100%)" fill-opacity="1">
<use xlink:href="#glyph-0-0" x="30" y="36.671875"/>
<use xlink:href="#glyph-0-1" x="44" y="36.671875"/>
<use xlink:href="#glyph-0-2" x="58" y="36.671875"/>
<use xlink:href="#glyph-0-3" x="78" y="36.671875"/>
<use xlink:href="#glyph-0-4" x="83" y="36.671875"/>
<use xlink:href="#glyph-0-5" x="97" y="36.671875"/>
<use xlink:href="#glyph-0-3" x="103" y="36.671875"/>
<use xlink:href="#glyph-0-2" x="108" y="36.671875"/>
<use xlink:href="#glyph-0-1" x="128" y="36.671875"/>
<use xlink:href="#glyph-0-6" x="143" y="36.671875"/>
<use xlink:href="#glyph-0-7" x="156" y="36.671875"/>
<use xlink:href="#glyph-0-8" x="169" y="36.671875"/>
</g>
</svg>
