<?xml version="1.0" encoding="UTF-8"?>
<svg xmlns="http://www.w3.org/2000/svg" xmlns:xlink="http://www.w3.org/1999/xlink" width="1080" height="1920" viewBox="0 0 1080 1920">
<defs>
<g>
<g id="glyph-0-0">
<path d="M 21.90625 0 L 13.5625 0 L 13.5625 -0.847656 C 13.808594 -0.867188 14.113281 -0.902344 14.46875 -0.953125 C 14.828125 -1.003906 15.070312 -1.058594 15.203125 -1.117188 C 15.46875 -1.226562 15.660156 -1.375 15.777344 -1.5625 C 15.894531 -1.75 15.949219 -1.988281 15.949219 -2.277344 L 15.949219 -13.78125 L 10.65625 -0.25 L 9.289062 -0.25 C 9.222656 -0.488281 9.0625 -0.960938 8.804688 -1.671875 C 8.546875 -2.378906 8.339844 -2.949219 8.179688 -3.375 L 4.285156 -13.953125 L 4.285156 -4.589844 C 4.285156 -3.691406 4.347656 -3.011719 4.464844 -2.542969 C 4.585938 -2.078125 4.777344 -1.734375 5.046875 -1.519531 C 5.226562 -1.367188 5.550781 -1.222656 6.015625 -1.085938 C 6.484375 -0.949219 6.8125 -0.867188 7 -0.847656 L 7 0 L 0.378906 0 L 0.378906 -0.847656 C 0.5625 -0.867188 0.855469 -0.917969 1.265625 -0.992188 C 1.671875 -1.070312 2.007812 -1.199219 2.269531 -1.390625 C 2.558594 -1.589844 2.753906 -1.933594 2.855469 -2.414062 C 2.953125 -2.894531 3.003906 -3.582031 3.003906 -4.46875 L 3.003906 -12.097656 C 3.003906 -12.5625 2.949219 -12.945312 2.832031 -13.253906 C 2.714844 -13.5625 2.542969 -13.804688 2.3125 -13.988281 C 2.023438 -14.210938 1.726562 -14.355469 1.421875 -14.421875 C 1.117188 -14.484375 0.808594 -14.53125 0.5 -14.550781 L 0.5 -15.398438 L 7.59375 -15.398438 L 11.390625 -5.253906 L 14.589844 -13.484375 C 14.695312 -13.789062 14.800781 -14.152344 14.902344 -14.570312 C 15.003906 -14.992188 15.058594 -15.265625 15.066406 -15.398438 L 21.886719 -15.398438 L 21.886719 -14.550781 C 21.65625 -14.535156 21.414062 -14.507812 21.160156 -14.464844 C 20.90625 -14.421875 20.664062 -14.363281 20.433594 -14.289062 C 20.148438 -14.195312 19.964844 -14.046875 19.875 -13.847656 C 19.78125 -13.644531 19.738281 -13.417969 19.738281 -13.171875 L 19.738281 -2.269531 C 19.738281 -2.007812 19.78125 -1.789062 19.875 -1.613281 C 19.964844 -1.433594 20.148438 -1.28125 20.433594 -1.148438 C 20.578125 -1.085938 20.8125 -1.023438 21.144531 -0.964844 C 21.472656 -0.90625 21.726562 -0.867188 21.90625 -0.847656 Z "/>
</g>
<g id="glyph-0-1">
<path d="M 12.292969 -2.59375 C 12.039062 -2.179688 11.734375 -1.792969 11.378906 -1.425781 C 11.019531 -1.0625 10.613281 -0.75 10.15625 -0.488281 C 9.671875 -0.214844 9.183594 -0.00390625 8.6875 0.136719 C 8.191406 0.277344 7.621094 0.347656 6.976562 0.347656 C 5.90625 0.347656 4.980469 0.195312 4.203125 -0.109375 C 3.425781 -0.414062 2.785156 -0.820312 2.277344 -1.335938 C 1.773438 -1.847656 1.394531 -2.453125 1.144531 -3.152344 C 0.894531 -3.851562 0.769531 -4.609375 0.769531 -5.425781 C 0.769531 -6.164062 0.90625 -6.871094 1.175781 -7.546875 C 1.449219 -8.222656 1.832031 -8.824219 2.332031 -9.351562 C 2.824219 -9.867188 3.445312 -10.28125 4.195312 -10.601562 C 4.941406 -10.917969 5.78125 -11.078125 6.707031 -11.078125 C 7.71875 -11.078125 8.550781 -10.957031 9.203125 -10.710938 C 9.851562 -10.464844 10.390625 -10.125 10.816406 -9.691406 C 11.230469 -9.277344 11.53125 -8.792969 11.71875 -8.230469 C 11.90625 -7.667969 12 -7.082031 12 -6.46875 L 12 -5.761719 L 4.664062 -5.761719 C 4.664062 -4.277344 4.953125 -3.148438 5.523438 -2.375 C 6.09375 -1.601562 7.003906 -1.214844 8.246094 -1.214844 C 8.925781 -1.214844 9.539062 -1.402344 10.082031 -1.773438 C 10.621094 -2.148438 11.085938 -2.617188 11.46875 -3.191406 L 12.292969 -2.59375 M 8.148438 -6.714844 C 8.148438 -7.152344 8.128906 -7.59375 8.082031 -8.050781 C 8.039062 -8.507812 7.964844 -8.878906 7.855469 -9.167969 C 7.734375 -9.507812 7.566406 -9.765625 7.351562 -9.9375 C 7.136719 -10.113281 6.867188 -10.199219 6.542969 -10.199219 C 5.984375 -10.199219 5.542969 -9.917969 5.207031 -9.351562 C 4.875 -8.789062 4.695312 -7.894531 4.664062 -6.671875 Z "/>
</g>
<g id="glyph-0-2">
<path d="M 13.03125 -0.226562 C 12.714844 -0.0898438 12.339844 0.0351562 11.90625 0.152344 C 11.472656 0.269531 11.015625 0.324219 10.53125 0.324219 C 9.640625 0.324219 8.988281 0.195312 8.570312 -0.0703125 C 8.152344 -0.335938 7.867188 -0.710938 7.714844 -1.203125 L 7.648438 -1.203125 C 7.402344 -0.957031 7.167969 -0.75 6.9375 -0.574219 C 6.710938 -0.402344 6.464844 -0.253906 6.203125 -0.128906 C 5.863281 0.0273438 5.535156 0.148438 5.222656 0.226562 C 4.90625 0.308594 4.464844 0.347656 3.902344 0.347656 C 3.058594 0.347656 2.34375 0.0976562 1.75 -0.398438 C 1.152344 -0.894531 0.855469 -1.550781 0.855469 -2.371094 C 0.855469 -2.839844 0.921875 -3.242188 1.054688 -3.570312 C 1.183594 -3.898438 1.367188 -4.191406 1.605469 -4.445312 C 1.824219 -4.675781 2.078125 -4.867188 2.363281 -5.019531 C 2.648438 -5.171875 2.960938 -5.316406 3.300781 -5.445312 C 3.953125 -5.683594 4.738281 -5.933594 5.648438 -6.1875 C 6.5625 -6.445312 7.230469 -6.675781 7.648438 -6.878906 L 7.648438 -7.921875 C 7.648438 -8.101562 7.636719 -8.339844 7.605469 -8.636719 C 7.578125 -8.933594 7.515625 -9.183594 7.421875 -9.386719 C 7.320312 -9.617188 7.160156 -9.8125 6.945312 -9.972656 C 6.726562 -10.132812 6.441406 -10.210938 6.085938 -10.210938 C 5.769531 -10.210938 5.503906 -10.164062 5.289062 -10.074219 C 5.074219 -9.984375 4.902344 -9.890625 4.773438 -9.796875 C 4.796875 -9.652344 4.855469 -9.433594 4.957031 -9.136719 C 5.058594 -8.839844 5.109375 -8.554688 5.109375 -8.277344 C 5.109375 -8.15625 5.078125 -8.003906 5.011719 -7.816406 C 4.949219 -7.632812 4.851562 -7.488281 4.730469 -7.378906 C 4.5625 -7.234375 4.375 -7.121094 4.167969 -7.042969 C 3.960938 -6.960938 3.644531 -6.921875 3.21875 -6.921875 C 2.609375 -6.921875 2.148438 -7.070312 1.835938 -7.363281 C 1.523438 -7.65625 1.367188 -8.035156 1.367188 -8.507812 C 1.367188 -8.914062 1.527344 -9.277344 1.851562 -9.597656 C 2.171875 -9.917969 2.5625 -10.183594 3.027344 -10.394531 C 3.484375 -10.613281 4.007812 -10.78125 4.601562 -10.898438 C 5.195312 -11.019531 5.742188 -11.078125 6.25 -11.078125 C 6.953125 -11.078125 7.59375 -11.039062 8.179688 -10.953125 C 8.765625 -10.871094 9.296875 -10.699219 9.765625 -10.4375 C 10.214844 -10.183594 10.570312 -9.816406 10.835938 -9.335938 C 11.097656 -8.855469 11.230469 -8.230469 11.230469 -7.453125 C 11.230469 -6.636719 11.214844 -5.667969 11.183594 -4.546875 C 11.148438 -3.425781 11.132812 -2.6875 11.132812 -2.332031 C 11.132812 -2.007812 11.183594 -1.75 11.28125 -1.5625 C 11.378906 -1.375 11.527344 -1.234375 11.730469 -1.140625 C 11.851562 -1.082031 12.046875 -1.046875 12.308594 -1.035156 C 12.574219 -1.027344 12.816406 -1.019531 13.03125 -1.019531 L 13.03125 -0.226562 M 7.648438 -5.882812 C 7.242188 -5.742188 6.839844 -5.585938 6.441406 -5.40625 C 6.042969 -5.230469 5.714844 -5.042969 5.460938 -4.847656 C 5.191406 -4.644531 4.980469 -4.386719 4.828125 -4.070312 C 4.675781 -3.753906 4.601562 -3.382812 4.601562 -2.957031 C 4.601562 -2.390625 4.730469 -1.980469 4.988281 -1.726562 C 5.246094 -1.472656 5.5625 -1.34375 5.941406 -1.34375 C 6.339844 -1.34375 6.667969 -1.425781 6.925781 -1.589844 C 7.183594 -1.753906 7.410156 -1.953125 7.605469 -2.195312 Z "/>
</g>
<g id="glyph-0-3">
<path d="M 14.953125 0 L 8.429688 0 L 8.429688 -0.792969 C 8.570312 -0.804688 8.734375 -0.824219 8.929688 -0.847656 C 9.125 -0.867188 9.273438 -0.902344 9.375 -0.953125 C 9.527344 -1.035156 9.636719 -1.148438 9.699219 -1.300781 C 9.765625 -1.453125 9.796875 -1.679688 9.796875 -1.976562 L 9.796875 -7.054688 C 9.796875 -7.789062 9.664062 -8.347656 9.390625 -8.71875 C 9.117188 -9.089844 8.71875 -9.277344 8.1875 -9.277344 C 7.898438 -9.277344 7.628906 -9.234375 7.378906 -9.148438 C 7.128906 -9.058594 6.882812 -8.933594 6.644531 -8.765625 C 6.433594 -8.621094 6.265625 -8.472656 6.136719 -8.324219 C 6.011719 -8.171875 5.902344 -8.035156 5.816406 -7.921875 L 5.816406 -2.09375 C 5.816406 -1.839844 5.851562 -1.628906 5.925781 -1.460938 C 5.996094 -1.289062 6.117188 -1.160156 6.28125 -1.074219 C 6.398438 -1.007812 6.542969 -0.953125 6.714844 -0.902344 C 6.890625 -0.851562 7.058594 -0.8125 7.226562 -0.792969 L 7.226562 0 L 0.628906 0 L 0.628906 -0.792969 C 0.808594 -0.804688 0.992188 -0.828125 1.175781 -0.851562 C 1.363281 -0.878906 1.519531 -0.910156 1.648438 -0.953125 C 1.878906 -1.035156 2.039062 -1.15625 2.125 -1.324219 C 2.214844 -1.488281 2.257812 -1.707031 2.257812 -1.976562 L 2.257812 -8.289062 C 2.257812 -8.515625 2.199219 -8.734375 2.082031 -8.953125 C 1.96875 -9.167969 1.816406 -9.347656 1.628906 -9.484375 C 1.496094 -9.570312 1.332031 -9.644531 1.132812 -9.699219 C 0.933594 -9.757812 0.714844 -9.796875 0.476562 -9.820312 L 0.476562 -10.613281 L 5.652344 -10.894531 L 5.816406 -10.730469 L 5.816406 -9.15625 L 5.859375 -9.15625 C 6.0625 -9.339844 6.308594 -9.554688 6.597656 -9.808594 C 6.886719 -10.0625 7.15625 -10.269531 7.398438 -10.425781 C 7.667969 -10.601562 8.019531 -10.75 8.453125 -10.871094 C 8.886719 -10.996094 9.351562 -11.058594 9.839844 -11.058594 C 11.019531 -11.058594 11.90625 -10.722656 12.496094 -10.054688 C 13.085938 -9.382812 13.378906 -8.496094 13.378906 -7.390625 L 13.378906 -2.074219 C 13.378906 -1.804688 13.417969 -1.589844 13.5 -1.433594 C 13.578125 -1.273438 13.726562 -1.148438 13.945312 -1.050781 C 14.058594 -1 14.203125 -0.953125 14.371094 -0.902344 C 14.542969 -0.851562 14.734375 -0.8125 14.953125 -0.792969 Z "/>
</g>
<g id="glyph-0-4">
<path d="M 7.488281 0 L 0.628906 0 L 0.628906 -0.792969 C 0.816406 -0.804688 1 -0.824219 1.183594 -0.847656 C 1.363281 -0.867188 1.519531 -0.902344 1.648438 -0.953125 C 1.878906 -1.042969 2.042969 -1.167969 2.136719 -1.328125 C 2.230469 -1.492188 2.277344 -1.707031 2.277344 -1.976562 L 2.277344 -8.289062 C 2.277344 -8.542969 2.222656 -8.765625 2.105469 -8.957031 C 1.988281 -9.148438 1.84375 -9.304688 1.671875 -9.417969 C 1.539062 -9.503906 1.34375 -9.589844 1.078125 -9.667969 C 0.816406 -9.746094 0.574219 -9.796875 0.359375 -9.820312 L 0.359375 -10.613281 L 5.675781 -10.894531 L 5.835938 -10.730469 L 5.835938 -2.117188 C 5.835938 -1.863281 5.890625 -1.648438 6 -1.46875 C 6.109375 -1.292969 6.265625 -1.160156 6.46875 -1.074219 C 6.613281 -1.007812 6.769531 -0.953125 6.945312 -0.902344 C 7.117188 -0.851562 7.300781 -0.8125 7.488281 -0.792969 L 7.488281 0 M 5.902344 -14.800781 C 5.902344 -14.25 5.691406 -13.78125 5.269531 -13.394531 C 4.84375 -13.007812 4.34375 -12.816406 3.765625 -12.816406 C 3.179688 -12.816406 2.675781 -13.007812 2.25 -13.394531 C 1.828125 -13.78125 1.617188 -14.25 1.617188 -14.800781 C 1.617188 -15.351562 1.828125 -15.820312 2.25 -16.210938 C 2.675781 -16.601562 3.179688 -16.796875 3.765625 -16.796875 C 4.351562 -16.796875 4.855469 -16.601562 5.273438 -16.210938 C 5.691406 -15.820312 5.902344 -15.351562 5.902344 -14.800781 Z "/>
</g>
<g id="glyph-0-5">
<path d="M 12.78125 -9.546875 L 10.394531 -9.546875 C 10.675781 -9.230469 10.890625 -8.898438 11.03125 -8.542969 C 11.171875 -8.191406 11.242188 -7.824219 11.242188 -7.445312 C 11.242188 -6.945312 11.109375 -6.476562 10.839844 -6.039062 C 10.574219 -5.601562 10.222656 -5.246094 9.789062 -4.96875 C 9.347656 -4.6875 8.828125 -4.46875 8.234375 -4.308594 C 7.644531 -4.148438 7 -4.070312 6.304688 -4.070312 L 4.535156 -4.070312 C 4.449219 -4.003906 4.351562 -3.898438 4.25 -3.757812 C 4.144531 -3.617188 4.089844 -3.480469 4.089844 -3.347656 C 4.089844 -3.027344 4.21875 -2.804688 4.46875 -2.679688 C 4.722656 -2.558594 5.183594 -2.488281 5.847656 -2.472656 C 6.507812 -2.460938 7.171875 -2.433594 7.84375 -2.394531 C 8.519531 -2.351562 9 -2.328125 9.289062 -2.320312 C 9.707031 -2.300781 10.125 -2.214844 10.535156 -2.066406 C 10.949219 -1.917969 11.308594 -1.726562 11.609375 -1.488281 C 11.941406 -1.234375 12.21875 -0.910156 12.433594 -0.515625 C 12.652344 -0.121094 12.761719 0.332031 12.761719 0.847656 C 12.761719 1.394531 12.628906 1.914062 12.363281 2.398438 C 12.101562 2.882812 11.699219 3.300781 11.15625 3.65625 C 10.582031 4.027344 9.898438 4.3125 9.097656 4.515625 C 8.300781 4.714844 7.308594 4.816406 6.128906 4.816406 C 4.226562 4.816406 2.78125 4.585938 1.789062 4.125 C 0.800781 3.660156 0.304688 2.964844 0.304688 2.039062 C 0.304688 1.46875 0.570312 1 1.105469 0.628906 C 1.640625 0.261719 2.472656 0.0585938 3.601562 0.0234375 L 3.601562 -0.109375 C 2.933594 -0.332031 2.417969 -0.632812 2.042969 -1.007812 C 1.671875 -1.378906 1.488281 -1.8125 1.488281 -2.304688 C 1.488281 -2.609375 1.5625 -2.867188 1.710938 -3.078125 C 1.855469 -3.289062 2.046875 -3.472656 2.277344 -3.632812 C 2.480469 -3.769531 2.726562 -3.890625 3.015625 -3.988281 C 3.304688 -4.085938 3.546875 -4.164062 3.742188 -4.21875 L 3.742188 -4.339844 C 2.765625 -4.703125 2.050781 -5.144531 1.589844 -5.664062 C 1.128906 -6.183594 0.902344 -6.820312 0.902344 -7.574219 C 0.902344 -8.636719 1.390625 -9.488281 2.371094 -10.125 C 3.351562 -10.761719 4.59375 -11.078125 6.097656 -11.078125 C 6.589844 -11.078125 7.066406 -11.039062 7.523438 -10.953125 C 7.984375 -10.871094 8.332031 -10.796875 8.570312 -10.730469 L 12.78125 -10.730469 L 12.78125 -9.546875 M 7.691406 -7.488281 C 7.691406 -8.332031 7.558594 -9.003906 7.289062 -9.496094 C 7.023438 -9.988281 6.609375 -10.230469 6.050781 -10.230469 C 5.765625 -10.230469 5.519531 -10.164062 5.308594 -10.03125 C 5.097656 -9.898438 4.929688 -9.703125 4.796875 -9.449219 C 4.671875 -9.207031 4.589844 -8.917969 4.546875 -8.589844 C 4.503906 -8.257812 4.480469 -7.921875 4.480469 -7.574219 C 4.480469 -6.785156 4.621094 -6.136719 4.894531 -5.632812 C 5.171875 -5.125 5.5625 -4.871094 6.070312 -4.871094 C 6.59375 -4.871094 6.996094 -5.101562 7.273438 -5.554688 C 7.554688 -6.011719 7.691406 -6.65625 7.691406 -7.488281 M 9.503906 1.636719 C 9.503906 1.390625 9.4375 1.148438 9.300781 0.90625 C 9.164062 0.664062 8.855469 0.464844 8.378906 0.316406 C 8.117188 0.269531 7.691406 0.242188 7.09375 0.226562 C 6.5 0.214844 5.683594 0.207031 4.640625 0.207031 C 4.390625 0.421875 4.179688 0.679688 4.007812 0.976562 C 3.839844 1.273438 3.753906 1.632812 3.753906 2.050781 C 3.753906 2.230469 3.804688 2.429688 3.90625 2.648438 C 4.007812 2.863281 4.164062 3.066406 4.382812 3.253906 C 4.636719 3.464844 4.917969 3.628906 5.226562 3.75 C 5.539062 3.867188 6.007812 3.929688 6.636719 3.929688 C 7.566406 3.929688 8.277344 3.746094 8.769531 3.386719 C 9.261719 3.023438 9.503906 2.441406 9.503906 1.636719 Z "/>
</g>
</g>
</defs>
<g fill="rgb(100%, 100%, 100%)" fill-opacity="1">
<use xlink:href="#glyph-0-0" x="30" y="40.37793"/>
<use xlink:href="#glyph-0-1" x="53" y="40.37793"/>
<use xlink:href="#glyph-0-2" x="66" y="40.37793"/>
<use xlink:href="#glyph-0-3" x="79" y="40.37793"/>
<use xlink:href="#glyph-0-4" x="94" y="40.37793"/>
<use xlink:href="#glyph-0-3" x="102" y="40.37793"/>
<use xlink:href="#glyph-0-5" x="117" y="40.37793"/>
</g>
</svg>
