<?xml version="1.0" encoding="UTF-8"?>
<svg xmlns="http://www.w3.org/2000/svg" xmlns:xlink="http://www.w3.org/1999/xlink" width="1080" height="1920" viewBox="0 0 1080 1920">
<defs>
<g>
<g id="glyph-0-0">
<path d="M 8.792969 -8.808594 L 5.640625 -4.59375 L 9.101562 0 L 7.425781 0 L 4.847656 -3.53125 L 2.273438 0 L 0.597656 0 L 4.058594 -4.59375 L 0.90625 -8.808594 L 2.507812 -8.808594 L 4.847656 -5.625 L 7.167969 -8.808594 Z "/>
</g>
<g id="glyph-0-1">
<path d="M 2.125 -1.335938 L 4.59375 -1.335938 L 4.59375 -10.3125 L 1.933594 -9.714844 L 1.933594 -11.164062 L 4.578125 -11.746094 L 6.167969 -11.746094 L 6.167969 -1.335938 L 8.605469 -1.335938 L 8.605469 0 L 2.125 0 Z "/>
</g>
<g id="glyph-0-2">
<path d="M 2.800781 -5.058594 L 6.898438 -5.058594 L 6.898438 -3.769531 L 2.800781 -3.769531 Z "/>
</g>
<g id="glyph-0-3">
<path d="M 0.675781 -11.746094 L 2.800781 -11.746094 L 4.828125 -5.765625 L 6.875 -11.746094 L 9.007812 -11.746094 L 9.007812 0 L 7.535156 0 L 7.535156 -10.375 L 5.445312 -4.183594 L 4.238281 -4.183594 L 2.140625 -10.375 L 2.140625 0 L 0.675781 0 Z "/>
</g>
</g>
</defs>
<g fill="rgb(90.980392%, 93.333333%, 97.254902%)" fill-opacity="1">
<use xlink:href="#glyph-0-0" x="30" y="34.954102"/>
<use xlink:href="#glyph-0-1" x="40" y="34.954102"/>
<use xlink:href="#glyph-0-2" x="50" y="34.954102"/>
<use xlink:href="#glyph-0-3" x="60" y="34.954102"/>
</g>
</svg>
